<svg width="164" height="50" viewBox="0 0 164 50" fill="none" xmlns="http://www.w3.org/2000/svg">
<rect width="164" height="50" fill="#F8FAFC"/>
<path d="M85.2706 14.876C85.4573 15.1187 85.5506 15.3613 85.5506 15.604C85.5693 15.716 85.5693 15.856 85.5506 16.024C85.5506 16.192 85.5413 16.3227 85.5226 16.416C85.4666 16.6027 85.3359 16.7893 85.1306 16.976C85.0746 17.032 85.0093 17.088 84.9346 17.144C84.8599 17.1813 84.7666 17.2187 84.6546 17.256C84.5426 17.2933 84.4306 17.3213 84.3186 17.34C84.2066 17.34 84.0853 17.3493 83.9546 17.368C83.8239 17.3867 83.7026 17.4053 83.5906 17.424C83.4786 17.424 83.3573 17.424 83.2266 17.424H81.6306V17.9C81.6119 19.58 81.6399 21.26 81.7146 22.94C81.8079 24.62 81.7986 26.3 81.6866 27.98C81.6306 28.54 81.5466 29.1187 81.4346 29.716C81.3226 30.2947 81.1359 30.8453 80.8746 31.368C80.6319 31.872 80.3053 32.3387 79.8946 32.768C79.4839 33.1973 78.9613 33.5333 78.3266 33.776C77.7293 34 77.0759 34.1587 76.3666 34.252C75.6573 34.3453 74.9386 34.3547 74.2106 34.28C73.5013 34.2053 72.8199 34.0467 72.1666 33.804C71.5133 33.5613 70.9626 33.2253 70.5146 32.796C70.2719 32.572 70.0479 32.3013 69.8426 31.984C69.6373 31.648 69.4973 31.3027 69.4226 30.948C69.3479 30.5747 69.3666 30.22 69.4786 29.884C69.5906 29.5293 69.8519 29.24 70.2626 29.016C70.6173 28.8107 70.9346 28.764 71.2146 28.876C71.5133 28.988 71.7933 29.1653 72.0546 29.408C72.3346 29.6507 72.6146 29.9027 72.8946 30.164C73.1933 30.4253 73.5199 30.5933 73.8746 30.668C74.6399 30.8547 75.2653 30.864 75.7506 30.696C76.2359 30.5093 76.6186 30.22 76.8986 29.828C77.1786 29.436 77.3746 28.96 77.4866 28.4C77.6173 27.84 77.6919 27.2707 77.7106 26.692C77.7479 26.1133 77.7573 25.5533 77.7386 25.012C77.7199 24.4707 77.7199 24.0133 77.7386 23.64C77.7573 22.6507 77.7573 21.68 77.7386 20.728C77.7199 19.776 77.7106 18.8053 77.7106 17.816V17.704C77.7293 17.6667 77.7386 17.6107 77.7386 17.536H77.6546C77.5426 17.5173 77.3093 17.508 76.9546 17.508C76.5999 17.4893 76.2173 17.48 75.8066 17.48C75.3959 17.48 75.0039 17.48 74.6306 17.48C74.2759 17.4613 74.0426 17.452 73.9306 17.452H73.5386V17.424C73.3893 17.4053 73.2399 17.3773 73.0906 17.34C72.9413 17.3027 72.7919 17.2653 72.6426 17.228C72.2879 17.116 72.0173 16.9387 71.8306 16.696C71.7373 16.6027 71.6626 16.4533 71.6066 16.248C71.5693 16.0427 71.5506 15.8653 71.5506 15.716C71.5506 15.6227 71.5506 15.52 71.5506 15.408C71.5506 15.296 71.5693 15.1933 71.6066 15.1C71.6439 14.8947 71.7746 14.708 71.9986 14.54C72.1479 14.428 72.3253 14.344 72.5306 14.288C72.6613 14.2507 72.7919 14.2227 72.9226 14.204C73.0533 14.1853 73.1933 14.1667 73.3426 14.148C73.4733 14.1293 73.6039 14.12 73.7346 14.12C73.8653 14.12 74.0053 14.12 74.1546 14.12H76.8426C76.9546 14.12 77.0853 14.12 77.2346 14.12C77.3839 14.12 77.5519 14.1107 77.7386 14.092C78.4666 14.092 79.1853 14.092 79.8946 14.092C80.6039 14.092 81.2946 14.1013 81.9666 14.12H82.1346C82.3399 14.12 82.5359 14.1293 82.7226 14.148C82.9279 14.148 83.1333 14.148 83.3386 14.148C83.7679 14.1667 84.1693 14.2507 84.5426 14.4C84.8413 14.4747 85.0839 14.6333 85.2706 14.876ZM89.4586 21.344C90.0746 21.0453 90.7186 20.8307 91.3906 20.7C92.0626 20.5693 92.7252 20.5413 93.3786 20.616C94.0506 20.6907 94.6946 20.868 95.3106 21.148C95.9452 21.428 96.5239 21.82 97.0466 22.324C97.4759 22.7533 97.8492 23.276 98.1666 23.892C98.4839 24.4893 98.7172 25.0773 98.8666 25.656C99.1839 26.6827 99.2306 27.7187 99.0066 28.764C98.7826 29.8093 98.3999 30.78 97.8586 31.676C97.5972 32.0867 97.2706 32.46 96.8786 32.796C96.5052 33.1133 96.1039 33.3747 95.6746 33.58C95.1146 33.8413 94.5079 34.0187 93.8546 34.112C93.2012 34.224 92.5666 34.252 91.9506 34.196C90.8306 34.14 89.8412 33.86 88.9826 33.356C88.1426 32.852 87.4612 32.208 86.9386 31.424C86.4346 30.64 86.0986 29.7533 85.9306 28.764C85.7812 27.756 85.8466 26.7293 86.1266 25.684C86.4252 24.564 86.8546 23.6587 87.4146 22.968C87.9932 22.2587 88.6746 21.7173 89.4586 21.344ZM90.2986 25.096C90.0186 25.3573 89.8039 25.684 89.6546 26.076C89.5052 26.468 89.4119 26.8787 89.3746 27.308C89.3372 27.7187 89.3652 28.1387 89.4586 28.568C89.5706 28.9787 89.7386 29.352 89.9626 29.688C90.1492 29.968 90.4852 30.2013 90.9706 30.388C91.4559 30.5747 91.9599 30.6867 92.4826 30.724C93.0799 30.7613 93.6026 30.6027 94.0506 30.248C94.4986 29.8747 94.8346 29.4173 95.0586 28.876C95.3012 28.3347 95.4132 27.7467 95.3946 27.112C95.3759 26.4773 95.2079 25.8987 94.8906 25.376C94.6666 25.0027 94.3492 24.732 93.9386 24.564C93.5466 24.3773 93.1266 24.284 92.6786 24.284C92.2492 24.2653 91.8199 24.3307 91.3906 24.48C90.9612 24.6107 90.5972 24.816 90.2986 25.096ZM101.434 16.304C101.471 15.632 101.676 15.0907 102.05 14.68C102.442 14.2693 102.992 14.1573 103.702 14.344C104.038 14.4373 104.28 14.5773 104.43 14.764C104.598 14.9507 104.71 15.1747 104.766 15.436C104.84 15.6787 104.878 15.9493 104.878 16.248C104.878 16.528 104.878 16.808 104.878 17.088V20.952C104.859 21.1013 104.85 21.2507 104.85 21.4C104.868 21.5307 104.878 21.652 104.878 21.764V22.128H105.578C105.783 22.128 105.979 22.128 106.166 22.128C106.371 22.128 106.548 22.1187 106.698 22.1C107.724 22.1 108.602 22.2493 109.33 22.548C110.076 22.8467 110.674 23.2667 111.122 23.808C111.588 24.3307 111.924 24.9653 112.13 25.712C112.354 26.44 112.456 27.2427 112.438 28.12C112.419 29.1653 112.251 30.0613 111.934 30.808C111.616 31.5547 111.168 32.1707 110.59 32.656C110.011 33.1413 109.311 33.5053 108.49 33.748C107.687 33.972 106.782 34.084 105.774 34.084C104.616 34.084 103.739 34.0747 103.142 34.056C102.544 34.0373 102.115 33.8693 101.854 33.552C101.611 33.2347 101.48 32.684 101.462 31.9C101.443 31.116 101.434 29.968 101.434 28.456C101.434 27 101.434 25.5627 101.434 24.144C101.452 22.7253 101.452 21.2973 101.434 19.86C101.434 19.6733 101.424 19.4773 101.406 19.272C101.406 19.0667 101.406 18.8333 101.406 18.572C101.406 18.3107 101.406 18.0027 101.406 17.648C101.406 17.2747 101.415 16.8267 101.434 16.304ZM106.67 30.948C107.696 30.892 108.406 30.612 108.798 30.108C109.003 29.828 109.162 29.492 109.274 29.1C109.386 28.708 109.432 28.316 109.414 27.924C109.395 27.532 109.311 27.1587 109.162 26.804C109.031 26.4307 108.816 26.1227 108.518 25.88C108.256 25.656 107.995 25.4973 107.734 25.404C107.472 25.292 107.202 25.2267 106.922 25.208C106.642 25.1707 106.343 25.1613 106.026 25.18C105.708 25.18 105.344 25.1893 104.934 25.208V28.568L104.878 30.892C105.064 30.9107 105.26 30.9293 105.466 30.948C105.82 30.9853 106.222 30.9853 106.67 30.948ZM134.686 15.296C134.761 15.6507 134.761 16.024 134.686 16.416C134.649 16.6027 134.612 16.7893 134.574 16.976C134.556 17.144 134.528 17.3213 134.49 17.508L134.462 17.62C134.201 18.7773 133.902 20 133.566 21.288C133.249 22.5573 132.96 23.7613 132.698 24.9C132.474 25.8333 132.241 26.86 131.998 27.98C131.756 29.1 131.504 30.1267 131.242 31.06C131.149 31.3773 131.046 31.6947 130.934 32.012C130.841 32.3293 130.72 32.6467 130.57 32.964C130.44 33.244 130.281 33.496 130.094 33.72C129.926 33.9253 129.73 34.0747 129.506 34.168C129.282 34.28 129.04 34.3173 128.778 34.28C128.536 34.2613 128.265 34.1493 127.966 33.944C127.518 33.6267 127.182 33.188 126.958 32.628C126.753 32.068 126.538 31.5547 126.314 31.088C126.24 30.9573 126.128 30.668 125.978 30.22C125.829 29.772 125.67 29.2867 125.502 28.764C125.334 28.2227 125.166 27.7093 124.998 27.224C124.849 26.72 124.718 26.3467 124.606 26.104C124.438 26.5147 124.27 26.9813 124.102 27.504C123.934 28.0267 123.776 28.54 123.626 29.044C123.477 29.548 123.337 30.0053 123.206 30.416C123.094 30.808 123.01 31.0973 122.954 31.284C122.805 31.6573 122.637 32.068 122.45 32.516C122.282 32.964 122.068 33.3467 121.806 33.664C121.564 33.9813 121.265 34.1867 120.91 34.28C120.556 34.392 120.136 34.2893 119.65 33.972C119.277 33.748 119.016 33.4307 118.866 33.02C118.773 32.7587 118.68 32.5067 118.586 32.264C118.493 32.0213 118.418 31.7693 118.362 31.508L117.802 29.408L116.654 24.9C116.505 24.3213 116.356 23.7333 116.206 23.136C116.076 22.52 115.917 21.8853 115.73 21.232C115.637 20.9147 115.553 20.6067 115.478 20.308C115.422 19.9907 115.357 19.6547 115.282 19.3C115.226 18.9267 115.152 18.5067 115.058 18.04C114.984 17.5733 114.89 17.032 114.778 16.416C114.741 16.2107 114.713 16.024 114.694 15.856C114.694 15.6693 114.713 15.4827 114.75 15.296C114.788 15.016 114.918 14.7733 115.142 14.568C115.236 14.4747 115.348 14.4 115.478 14.344C115.609 14.288 115.749 14.2413 115.898 14.204C116.122 14.1293 116.356 14.092 116.598 14.092C116.822 14.092 117.056 14.1667 117.298 14.316C117.466 14.4093 117.597 14.5307 117.69 14.68L118.026 15.268C118.064 15.3987 118.101 15.52 118.138 15.632C118.176 15.7253 118.213 15.828 118.25 15.94C118.288 16.0707 118.316 16.192 118.334 16.304C118.353 16.3973 118.372 16.4907 118.39 16.584C118.558 17.5547 118.764 18.4973 119.006 19.412C119.249 20.3267 119.473 21.204 119.678 22.044C119.753 22.38 119.846 22.8 119.958 23.304C120.07 23.7893 120.182 24.3027 120.294 24.844C120.406 25.3667 120.518 25.8707 120.63 26.356C120.742 26.8413 120.854 27.224 120.966 27.504C121.209 26.664 121.452 25.824 121.694 24.984C121.956 24.144 122.236 23.2947 122.534 22.436C122.684 21.988 122.833 21.5867 122.982 21.232C123.15 20.8587 123.337 20.5507 123.542 20.308C123.748 20.0653 123.981 19.9067 124.242 19.832C124.504 19.7573 124.812 19.7853 125.166 19.916C125.484 20.0467 125.764 20.3267 126.006 20.756C126.249 21.1853 126.464 21.624 126.65 22.072C126.818 22.4827 126.977 22.9213 127.126 23.388C127.294 23.836 127.453 24.284 127.602 24.732C127.77 25.1613 127.929 25.572 128.078 25.964C128.228 26.356 128.377 26.692 128.526 26.972C128.582 26.7667 128.648 26.5053 128.722 26.188C128.797 25.8707 128.872 25.5347 128.946 25.18C129.04 24.8067 129.124 24.4427 129.198 24.088C129.273 23.7333 129.348 23.4067 129.422 23.108C129.665 22.1 129.917 21.092 130.178 20.084C130.44 19.0573 130.692 18.0493 130.934 17.06L131.074 16.584C131.112 16.4907 131.13 16.3973 131.13 16.304C131.149 16.192 131.177 16.0707 131.214 15.94C131.252 15.828 131.289 15.7253 131.326 15.632C131.364 15.52 131.401 15.3987 131.438 15.268C131.476 15.1747 131.513 15.0813 131.55 14.988C131.606 14.876 131.672 14.7733 131.746 14.68C131.802 14.5867 131.868 14.512 131.942 14.456C132.017 14.4 132.092 14.3533 132.166 14.316C132.428 14.1667 132.652 14.092 132.838 14.092C133.081 14.092 133.314 14.1293 133.538 14.204C133.837 14.26 134.108 14.3813 134.35 14.568C134.537 14.7547 134.649 14.9973 134.686 15.296ZM148.929 21.512C149.097 21.7733 149.172 22.0533 149.153 22.352C149.153 22.7813 149.078 23.1547 148.929 23.472C148.892 23.5653 148.836 23.6867 148.761 23.836C148.705 23.9853 148.64 24.144 148.565 24.312C148.509 24.48 148.444 24.6387 148.369 24.788C148.294 24.9373 148.238 25.0493 148.201 25.124L148.145 25.264C147.884 25.8427 147.632 26.4027 147.389 26.944C147.146 27.4853 146.876 28.064 146.577 28.68C146.278 29.2773 145.989 29.8653 145.709 30.444C145.448 31.004 145.186 31.5547 144.925 32.096C144.85 32.2453 144.785 32.3947 144.729 32.544C144.673 32.6747 144.598 32.8147 144.505 32.964L143.161 35.848C142.918 36.3333 142.685 36.8093 142.461 37.276C142.256 37.7427 142.022 38.2093 141.761 38.676C141.705 38.7693 141.649 38.8533 141.593 38.928C141.556 39.0213 141.518 39.1147 141.481 39.208C141.35 39.432 141.154 39.6467 140.893 39.852C140.65 40.076 140.389 40.1973 140.109 40.216C139.605 40.2533 139.166 40.104 138.793 39.768C138.569 39.6373 138.392 39.4507 138.261 39.208C138.186 39.04 138.149 38.8253 138.149 38.564C138.168 38.452 138.177 38.34 138.177 38.228C138.196 38.1347 138.214 38.0413 138.233 37.948C138.27 37.8547 138.298 37.7613 138.317 37.668C138.336 37.5747 138.364 37.5 138.401 37.444C138.457 37.2947 138.504 37.22 138.541 37.22L140.585 32.796C140.492 32.5907 140.398 32.3853 140.305 32.18C140.212 31.956 140.128 31.76 140.053 31.592C139.81 31.0133 139.549 30.4067 139.269 29.772C139.008 29.1187 138.737 28.4747 138.457 27.84C138.177 27.1867 137.888 26.552 137.589 25.936C137.29 25.32 136.992 24.732 136.693 24.172C136.581 23.9853 136.478 23.7893 136.385 23.584C136.292 23.36 136.217 23.1453 136.161 22.94C136.105 22.716 136.086 22.492 136.105 22.268C136.124 22.044 136.208 21.82 136.357 21.596C136.506 21.316 136.702 21.12 136.945 21.008C137.188 20.8773 137.44 20.8213 137.701 20.84C137.981 20.84 138.242 20.896 138.485 21.008C138.728 21.12 138.924 21.2693 139.073 21.456C139.39 21.792 139.642 22.1653 139.829 22.576C140.016 22.9867 140.193 23.4067 140.361 23.836C140.716 24.5827 141.08 25.3667 141.453 26.188C141.826 27.0093 142.2 27.812 142.573 28.596L144.029 25.516C144.178 25.2173 144.309 24.928 144.421 24.648C144.552 24.368 144.682 24.0973 144.813 23.836C144.962 23.5187 145.102 23.192 145.233 22.856C145.382 22.52 145.55 22.212 145.737 21.932C145.774 21.8573 145.812 21.792 145.849 21.736C145.886 21.68 145.924 21.6147 145.961 21.54C146.129 21.316 146.278 21.1387 146.409 21.008C146.502 20.9333 146.577 20.8773 146.633 20.84C146.708 20.784 146.792 20.7467 146.885 20.728C147.016 20.6907 147.137 20.672 147.249 20.672C147.38 20.6533 147.501 20.6533 147.613 20.672C147.8 20.728 148.024 20.812 148.285 20.924C148.565 21.036 148.78 21.232 148.929 21.512ZM159.089 30.64C159.369 30.64 159.677 30.6493 160.013 30.668C160.368 30.668 160.704 30.696 161.021 30.752C161.357 30.7893 161.656 30.864 161.917 30.976C162.197 31.088 162.393 31.2373 162.505 31.424C162.785 31.9093 162.869 32.348 162.757 32.74C162.664 33.1133 162.458 33.4027 162.141 33.608C161.805 33.8507 161.413 34.0093 160.965 34.084C160.517 34.1773 160.106 34.2147 159.733 34.196C158.968 34.1587 158.156 34.1493 157.297 34.168C156.438 34.2053 155.626 34.2333 154.861 34.252C154.6 34.252 154.32 34.252 154.021 34.252C153.741 34.2707 153.47 34.252 153.209 34.196C152.948 34.1587 152.696 34.0747 152.453 33.944C152.229 33.8133 152.033 33.608 151.865 33.328C151.641 32.9733 151.585 32.6187 151.697 32.264C151.828 31.8907 151.977 31.5453 152.145 31.228C152.406 30.7613 152.714 30.304 153.069 29.856C153.442 29.408 153.76 29.0253 154.021 28.708L157.521 24.116L154.693 24.2C154.469 24.2 154.226 24.2 153.965 24.2C153.722 24.2 153.47 24.1813 153.209 24.144C152.948 24.088 152.705 24.0227 152.481 23.948C152.257 23.8733 152.061 23.7613 151.893 23.612C151.725 23.444 151.604 23.2573 151.529 23.052C151.454 22.828 151.417 22.604 151.417 22.38C151.436 22.156 151.482 21.9413 151.557 21.736C151.65 21.512 151.772 21.316 151.921 21.148C152.033 21.036 152.173 20.9427 152.341 20.868C152.528 20.7933 152.733 20.7373 152.957 20.7C153.181 20.6627 153.405 20.644 153.629 20.644C153.872 20.6253 154.096 20.616 154.301 20.616C154.712 20.616 155.169 20.616 155.673 20.616C156.177 20.616 156.662 20.616 157.129 20.616C157.614 20.5973 158.062 20.588 158.473 20.588C158.902 20.5693 159.248 20.56 159.509 20.56C159.845 20.56 160.181 20.5507 160.517 20.532C160.853 20.5133 161.17 20.5413 161.469 20.616C161.768 20.6907 162.02 20.8307 162.225 21.036C162.449 21.2227 162.589 21.5307 162.645 21.96C162.682 22.24 162.664 22.52 162.589 22.8C162.533 23.0613 162.43 23.3227 162.281 23.584C162.15 23.8267 161.992 24.0787 161.805 24.34C161.618 24.5827 161.432 24.816 161.245 25.04L156.905 30.64H159.089Z" fill="#2CB1BC"/>
<path d="M40 0H10C4.47715 0 0 4.47715 0 10V40C0 45.5228 4.47715 50 10 50H40C45.5228 50 50 45.5228 50 40V10C50 4.47715 45.5228 0 40 0Z" fill="#2CB1BC"/>
<path d="M26.004 9.5625H31.8633V29.25C31.8633 31.0599 31.4596 32.6615 30.6523 34.0547C29.8581 35.4349 28.7318 36.5026 27.2734 37.2578C25.8151 38.013 24.1681 38.3906 22.3321 38.3906C19.3243 38.3906 16.9805 37.6289 15.3008 36.1055C13.6211 34.569 12.7812 32.401 12.7812 29.6016H18.6798C18.6798 30.9948 18.9727 32.0234 19.5586 32.6875C20.1445 33.3516 21.0691 33.6836 22.3321 33.6836C23.4519 33.6836 24.3438 33.2995 25.0078 32.5312C25.6719 31.763 26.004 30.6693 26.004 29.25V9.5625Z" fill="white"/>
</svg>
